<?xml version="1.0" encoding="utf-8"?>
<svg version="1.1" id="Calque_2" xmlns="http://www.w3.org/2000/svg" xmlns:xlink="http://www.w3.org/1999/xlink" x="0px" y="0px"
	 viewBox="0 0 80 80" style="enable-background:new 0 0 80 80;" xml:space="preserve" fill="white">
<path d="M44,6.2C62.5,8.2,77,23.9,77,43c0,20.4-16.6,37-37,37S3,63.4,3,43C3,24.1,17,8.6,35.2,6.3c0.1,2.3,3.1,3.9,3.1,6.2
	c0,1.3-0.7,2.2-0.7,2.2c-15.4,1.2-27.3,14.7-26,30.7c1,12.9,12.9,24.8,25.7,25.9c7,0.6,13.6-1.3,18.8-5c0.7-0.5,0.8-1.4,0.2-2
	l-7.7-7.7c-0.4-0.4-1-0.5-1.5-0.2c-2.7,1.5-5.8,2.1-9.2,1.7C31,57.2,25.5,51.2,24.8,44c-0.3-3.2-0.3-9.2,6.5-17.2
	c6.3-7.4,8.9-10.8,8.7-14.6c-0.2-2.7-3-4.1-3-6.2C37,2.5,42.2,0,42.2,0s-1.5,4.4,0,6.5s6.9,3.6,6.8,8.9c-0.1,5.2-2.1,7.7-1,11.5
	c1.2,4.4,6.6,7.4,7.1,14.2c0.2,3,0,5.2-0.9,7.5C54,49,54,49.6,54.4,50l7.9,7.9c0.6,0.6,1.6,0.5,2-0.3c2.9-4.9,4.5-10.8,3.9-17
	c-0.9-10.7-7.9-19.8-17.5-23.8c0,0,0.1-3.5-1.1-5.4C47.7,8.1,44.1,6.9,44,6.2z"/>
</svg>
